<?xml version="1.0" encoding="utf-8"?>
<svg width="892.3064px" height="428.2312px" viewBox="0 0 892.3064 428.2312" version="1.1" xmlns:xlink="http://www.w3.org/1999/xlink" xmlns="http://www.w3.org/2000/svg">
  <g id="Слой_x0020_1">
    <path d="M213.968 0.306872C96.0014 0.306872 0 96.2886 0 214.276C0 332.243 96.0006 428.231 213.968 428.231C331.935 428.231 427.923 332.243 427.923 214.276C427.923 96.2886 331.936 0.306855 213.968 0.306855L213.968 0.306872L213.968 0.306872Z" id="Shape" fill="#00B533" fill-rule="evenodd" stroke="none" />
    <path d="M554.766 427.923L427.703 427.923L577.887 0L704.949 0L554.766 427.923L554.766 427.923Z" id="Polygon" fill="#00282F" fill-rule="evenodd" stroke="none" />
    <path d="M742.122 427.923L615.061 427.923L765.245 0L892.306 0L742.122 427.923L742.122 427.923Z" id="Polygon-Copy" fill="#00282F" fill-rule="evenodd" stroke="none" />
  </g>
  <path d="M892 0.0600586L892 0.0600586L892 428.06L0 428.06L0 0.0600586L892 0.0600586L892 0.0600586Z" id="logo#1" fill="none" stroke="none" />
</svg>